<svg width="19" height="20" viewBox="0 0 19 20" fill="none" xmlns="http://www.w3.org/2000/svg">
<mask id="mask0_11_1520" style="mask-type:luminance" maskUnits="userSpaceOnUse" x="0" y="0" width="18" height="20">
<path fill-rule="evenodd" clip-rule="evenodd" d="M0.111084 19.1811H17.8818V0.980835H0.111084V19.1811Z" fill="white"/>
</mask>
<g mask="url(#mask0_11_1520)">
<path fill-rule="evenodd" clip-rule="evenodd" d="M16.901 0.980835H1.09186C0.550135 0.980835 0.111084 1.4305 0.111084 1.98531V18.1766C0.111084 18.7313 0.550135 19.1811 1.09186 19.1811H9.60302V12.133H7.28711V9.3862H9.60302V7.36053C9.60302 5.0098 11.0049 3.72975 13.0524 3.72975C14.0333 3.72975 14.8762 3.80449 15.1219 3.8379V6.29461L13.7018 6.2953C12.5882 6.2953 12.3726 6.83722 12.3726 7.63249V9.3862H15.0284L14.6826 12.133H12.3726V19.1811H16.901C17.4427 19.1811 17.8818 18.7313 17.8818 18.1766V1.98531C17.8818 1.4305 17.4427 0.980835 16.901 0.980835Z" fill="#E3CDB1"/>
</g>
</svg>
