<svg width="40" height="41" viewBox="0 0 40 41" fill="none" xmlns="http://www.w3.org/2000/svg">
<g clip-path="url(#clip0_11_1497)">
<ellipse cx="20" cy="20.5528" rx="20" ry="20.3021" stroke="#E3CDB1"/>
<mask id="mask0_11_1497" style="mask-type:luminance" maskUnits="userSpaceOnUse" x="11" y="11" width="18" height="19">
<path fill-rule="evenodd" clip-rule="evenodd" d="M11.1113 29.5689H28.882V11.5297H11.1113V29.5689V29.5689Z" fill="white"/>
</mask>
<g mask="url(#mask0_11_1497)">
<path fill-rule="evenodd" clip-rule="evenodd" d="M27.9013 11.5297H12.0921C11.5504 11.5297 11.1113 11.9753 11.1113 12.5253V28.5732C11.1113 29.1231 11.5504 29.5689 12.0921 29.5689H20.6033V22.5831H18.2874V19.8606H20.6033V17.8529C20.6033 15.523 22.0051 14.2543 24.0527 14.2543C25.0335 14.2543 25.8765 14.3283 26.1221 14.3614V16.7964L24.702 16.7971C23.5885 16.7971 23.3728 17.3342 23.3728 18.1225V19.8606H26.0286L25.6828 22.5831H23.3728V29.5689H27.9013C28.4429 29.5689 28.882 29.1231 28.882 28.5732V12.5253C28.882 11.9753 28.4429 11.5297 27.9013 11.5297" fill="#E3CDB1"/>
</g>
</g>
<defs>
<clipPath id="clip0_11_1497">
<rect width="40" height="40.6042" fill="white" transform="translate(0 0.250732)"/>
</clipPath>
</defs>
</svg>
