<svg width="133" height="26" viewBox="0 0 133 26" fill="none" xmlns="http://www.w3.org/2000/svg">
<g clip-path="url(#clip0_2002_268)">
<path fill-rule="evenodd" clip-rule="evenodd" d="M8.18679 20.4722L8.0176 20.8611C6.83329 23.8611 5.70538 24.7777 4.38008 24.9166C4.74665 24.5833 5.08502 24.0277 5.08502 23.3055C5.08502 22.2777 4.29548 21.4999 3.30856 21.4999C2.12425 21.4999 1.4475 22.4444 1.4475 23.3611C1.4475 24.6666 2.40622 25.4999 4.0417 25.4999C5.64898 25.4999 7.14347 24.5277 8.52516 21.2222L13.4598 9.5555C14.0238 8.16661 14.9543 7.5555 16.0822 7.44439V7.11106H10.64V7.44439C12.6985 7.72217 13.1496 8.38883 12.3883 10.2777L9.93506 16.3888L6.6923 8.94439C6.26933 7.97217 6.55131 7.58328 8.15859 7.44439V7.11106H0.404175V7.44439C1.78587 7.63883 2.20884 7.94439 2.82919 9.27772L8.18679 20.4722ZM21.2142 20.1666C23.0189 20.1666 24.5698 19.1666 25.7541 17.3055V19.9444H31.3936V19.6111C29.8146 19.5555 29.448 19.3333 29.448 18.5555V7.0555L23.7238 7.16661V7.49995C25.2747 7.5555 25.6977 8.02772 25.6977 8.86106V16.6944C24.9645 17.8333 24.2032 18.4444 23.1881 18.4444C21.75 18.4444 21.1296 17.4999 21.1296 15.7777V7.0555L15.4336 7.16661V7.49995C17.0409 7.52772 17.3793 8.02772 17.3793 8.86106V16.1111C17.3793 18.8055 18.8456 20.1666 21.2142 20.1666V20.1666ZM40.8399 19.9444H47.5228V19.6111C46.3385 19.5833 46.0283 19.3611 46.0283 18.5833V10.8888C46.0283 10.7777 46.0283 10.6388 46.0001 10.4444C46.8179 9.24995 47.7766 8.61106 48.5098 8.61106C49.9197 8.61106 50.4554 9.58328 50.4554 11.2499V18.5833C50.4554 19.3611 50.2016 19.5833 49.0737 19.6111V19.9444H56.1514V19.6111C54.5159 19.5833 54.2057 19.3611 54.2057 18.5833V10.9722C54.2057 8.36106 53.0214 6.97217 50.6528 6.97217C48.9045 6.97217 47.0999 8.13883 45.9438 9.86106C45.6336 7.97217 44.4775 6.97217 42.5036 6.97217C40.6425 6.97217 39.0353 8.0555 37.8228 9.83328V7.0555L32.155 7.3055V7.63883C33.7905 7.66661 34.1288 8.19439 34.1288 9.02772V18.5833C34.1288 19.3611 33.7905 19.5833 32.155 19.6111V19.9444H39.2327V19.6111C38.1047 19.5833 37.8792 19.3611 37.8792 18.5833V10.4444C38.6123 9.33328 39.2327 8.61106 40.2478 8.61106C41.6577 8.61106 42.278 9.58328 42.278 11.2499V18.5833C42.278 19.3611 41.996 19.5833 40.8399 19.6111V19.9444ZM84.603 20.4722L84.4339 20.8611C83.2495 23.8611 82.1216 24.7777 80.7963 24.9166C81.1629 24.5833 81.5013 24.0277 81.5013 23.3055C81.5013 22.2777 80.7117 21.4999 79.7248 21.4999C78.5405 21.4999 77.8637 22.4444 77.8637 23.3611C77.8637 24.6666 78.8225 25.4999 80.458 25.4999C82.0652 25.4999 83.5597 24.5277 84.9414 21.2222L89.876 9.5555C90.44 8.16661 91.3705 7.5555 92.4984 7.44439V7.11106H87.0563V7.44439C89.1147 7.72217 89.5659 8.38883 88.8045 10.2777L86.3513 16.3888L83.1086 8.94439C82.6856 7.97217 82.9676 7.58328 84.5748 7.44439V7.11106H76.8204V7.44439C78.2021 7.63883 78.6251 7.94439 79.2454 9.27772L84.603 20.4722ZM97.6305 20.1666C99.4351 20.1666 100.986 19.1666 102.17 17.3055V19.9444H107.81V19.6111C106.231 19.5555 105.864 19.3333 105.864 18.5555V7.0555L100.14 7.16661V7.49995C101.691 7.5555 102.114 8.02772 102.114 8.86106V16.6944C101.381 17.8333 100.619 18.4444 99.6043 18.4444C98.1662 18.4444 97.5459 17.4999 97.5459 15.7777V7.0555L91.8499 7.16661V7.49995C93.4572 7.52772 93.7956 8.02772 93.7956 8.86106V16.1111C93.7956 18.8055 95.2618 20.1666 97.6305 20.1666V20.1666ZM117.256 19.9444H123.939V19.6111C122.755 19.5833 122.445 19.3611 122.445 18.5833V10.8888C122.445 10.7777 122.445 10.6388 122.416 10.4444C123.234 9.24995 124.193 8.61106 124.926 8.61106C126.336 8.61106 126.872 9.58328 126.872 11.2499V18.5833C126.872 19.3611 126.618 19.5833 125.49 19.6111V19.9444H132.568V19.6111C130.932 19.5833 130.622 19.3611 130.622 18.5833V10.9722C130.622 8.36106 129.438 6.97217 127.069 6.97217C125.321 6.97217 123.516 8.13883 122.36 9.86106C122.05 7.97217 120.894 6.97217 118.92 6.97217C117.059 6.97217 115.452 8.0555 114.239 9.83328V7.0555L108.571 7.3055V7.63883C110.207 7.66661 110.545 8.19439 110.545 9.02772V18.5833C110.545 19.3611 110.207 19.5833 108.571 19.6111V19.9444H115.649V19.6111C114.521 19.5833 114.295 19.3611 114.295 18.5833V10.4444C115.029 9.33328 115.649 8.61106 116.664 8.61106C118.074 8.61106 118.694 9.58328 118.694 11.2499V18.5833C118.694 19.3611 118.412 19.5833 117.256 19.6111V19.9444Z" fill="black"/>
<g clip-path="url(#clip1_2002_268)">
<path fill-rule="evenodd" clip-rule="evenodd" d="M65.5977 0.870361C68.9237 0.870361 71.1151 2.71425 71.1151 5.16666C71.1151 7.06032 69.8406 8.56629 67.2987 9.71497C68.5672 10.8046 69.6531 11.9301 70.4208 12.9804C71.6068 10.5434 73.2337 9.25925 74.8748 9.25925C76.5988 9.25925 77.7698 10.3546 77.7698 11.9444C77.7698 13.3182 76.6787 14.4352 75.2977 14.4352C74.0751 14.4352 73.1018 13.5418 72.9355 12.3819C72.4098 12.833 71.9014 13.4862 71.4117 14.3722C73.064 16.9995 74.1323 17.8426 75.3541 17.8426C75.8269 17.8426 76.1446 17.7198 76.9234 17.2L77.2645 16.9724L77.5382 17.2757L77.7638 17.5257L78.0431 17.8352L77.7619 18.143C76.1111 19.9499 74.4783 20.8796 72.7881 20.8796C70.8927 20.8796 69.7454 20.1693 68.4374 18.118C67 19.9273 65.0965 20.8796 62.6369 20.8796C59.1973 20.8796 56.8375 18.7583 56.8375 15.7222C56.8375 13.2218 58.4093 11.3661 61.508 10.1939C60.1957 8.79034 59.6291 7.54834 59.6291 6.05555C59.6291 3.0095 62.0053 0.870361 65.5977 0.870361ZM70.8075 13.5458C70.7725 13.6039 70.7376 13.663 70.7029 13.7231C70.6188 13.8685 70.5356 14.0194 70.4533 14.176L70.3318 14.4072L70.4692 14.6296C70.5225 14.7157 70.5752 14.8003 70.6276 14.8834L70.5864 14.9845L70.1004 14.1815C69.3186 12.8896 67.8694 11.3696 66.1158 9.93999L65.505 9.44203L66.2416 9.15319C68.9355 8.09684 70.1751 6.78268 70.1751 5.16666C70.1751 3.26085 68.4346 1.79629 65.5977 1.79629C62.5064 1.79629 60.569 3.54042 60.569 6.05555C60.569 7.45205 61.1672 8.59082 62.6842 10.0586L63.2353 10.5917L62.5013 10.8288C59.2916 11.8655 57.7775 13.4898 57.7775 15.7222C57.7775 18.227 59.6982 19.9537 62.6369 19.9537C65.0224 19.9537 66.7709 18.9595 68.0828 17.021L68.5035 16.3994L68.8813 17.0471C70.1998 19.3071 71.097 19.9537 72.7881 19.9537C73.7657 19.9537 74.7555 19.5526 75.7787 18.7399C76.2743 18.6678 76.7285 18.4485 77.4506 17.9666L77.3791 17.8627L77.4126 17.8333L77.2751 17.7114L77.187 17.5833L77.1586 17.6082L77.0633 17.5236C76.6284 17.9996 76.2007 18.4048 75.7787 18.7399C75.6425 18.7598 75.5031 18.7685 75.3541 18.7685C73.7371 18.7685 72.4303 17.7414 70.6276 14.8834L70.9402 14.117C71.3521 13.1072 71.8254 12.2934 72.3298 11.674C72.5877 11.4537 72.8528 11.2704 73.1251 11.1224L73.391 10.9778L73.6341 11.1574L73.7469 11.2407L74.0178 11.4409L73.9107 11.7575C73.8774 11.8561 73.8674 11.8881 73.8602 11.9199C73.8533 11.9505 73.8502 11.9798 73.8502 12.0278C73.8502 12.8536 74.4832 13.5093 75.2977 13.5093C76.1513 13.5093 76.8298 12.8147 76.8298 11.9444C76.8298 10.877 76.0903 10.1852 74.8748 10.1852C74.0304 10.1852 73.14 10.6789 72.3298 11.674C71.7925 12.1327 71.2857 12.7518 70.8075 13.5458Z" fill="black"/>
<path fill-rule="evenodd" clip-rule="evenodd" d="M62.4618 10.4074L62.7738 10.1279L63.0895 10.4034C65.1847 12.2314 67.5088 14.8113 68.6204 16.5906L68.7926 16.8664L68.5888 17.1204C67.5677 18.3926 66.2885 19.0462 64.8646 19.0462C62.2671 19.0462 60.4751 17.3436 60.4751 14.7499C60.4751 13.0124 61.1199 11.6091 62.4618 10.4074ZM67.8515 16.5461L67.8199 17.0759C67.763 16.9849 67.7026 16.8914 67.639 16.7959C67.7109 16.7163 67.7817 16.633 67.8515 16.5461ZM62.7895 11.383C61.8518 12.3385 61.415 13.4134 61.415 14.7499C61.415 16.8246 62.7788 18.1203 64.8646 18.1203C65.8984 18.1203 66.8359 17.6847 67.639 16.7959C66.5815 15.2079 64.6226 13.0323 62.7895 11.383ZM62.7895 11.383C62.8857 11.2849 62.9872 11.1882 63.0941 11.0925L62.4663 11.0965C62.5735 11.19 62.6813 11.2856 62.7895 11.383Z" fill="black"/>
<path fill-rule="evenodd" clip-rule="evenodd" d="M66.1619 9.40299L65.8309 9.68994L65.5191 9.3828C63.4336 7.32834 62.7308 6.11094 62.7308 4.49988C62.7308 2.58687 63.8102 1.3147 65.4284 1.3147C67.1862 1.3147 68.1824 2.62624 68.1824 4.77766C68.1824 6.83044 67.635 8.12592 66.1619 9.40299ZM65.4284 2.24062C64.3704 2.24062 63.6708 3.06518 63.6708 4.49988C63.6708 5.73872 64.1921 6.71292 65.8653 8.40998C65.7638 8.50924 65.6558 8.60834 65.5409 8.70789L66.1837 8.72807C66.0732 8.61922 65.9671 8.51326 65.8653 8.40998C66.8794 7.41825 67.2425 6.41038 67.2425 4.77766C67.2425 3.08893 66.5981 2.24062 65.4284 2.24062Z" fill="black"/>
</g>
</g>
<defs>
<clipPath id="clip0_2002_268">
<rect width="133" height="25" fill="white" transform="translate(0 0.5)"/>
</clipPath>
<clipPath id="clip1_2002_268">
<rect width="22" height="21" fill="white" transform="translate(56.3958 0.5)"/>
</clipPath>
</defs>
</svg>
