<svg width="19" height="15" viewBox="0 0 19 15" fill="none" xmlns="http://www.w3.org/2000/svg">
<path fill-rule="evenodd" clip-rule="evenodd" d="M18.0809 1.98294C17.4281 2.27407 16.8779 2.28369 16.2941 1.99577C17.0464 1.54505 17.0808 1.22826 17.3527 0.376545C16.6486 0.794385 15.8682 1.09834 15.0382 1.26195C14.3749 0.554588 13.4278 0.111084 12.3795 0.111084C10.3665 0.111084 8.73527 1.74395 8.73527 3.75535C8.73527 4.04086 8.76735 4.31916 8.82911 4.58622C5.80077 4.43464 3.11488 2.98383 1.31761 0.778345C1.00403 1.31648 0.824383 1.94284 0.824383 2.61091C0.824383 3.87565 1.46839 4.99043 2.44522 5.64405C1.84773 5.62481 1.28633 5.4612 0.795511 5.18852C0.794709 5.20376 0.794709 5.21819 0.794709 5.23423C0.794709 7.00023 2.05063 8.47269 3.71879 8.80793C3.18466 8.95309 2.62166 8.97555 2.07229 8.87129C2.53664 10.3181 3.88239 11.3719 5.47676 11.4016C3.91688 12.6238 1.98327 13.1331 0.0809326 12.9101C1.69455 13.9439 3.60891 14.547 5.66764 14.547C12.3707 14.547 16.0358 8.99399 16.0358 4.17801C16.0358 4.01921 16.0334 3.86282 16.0262 3.70643C16.7376 3.19315 17.5925 2.71436 18.0809 1.98294Z" fill="#E3CDB1"/>
</svg>
