<svg width="40" height="41" viewBox="0 0 40 41" fill="none" xmlns="http://www.w3.org/2000/svg">
<g clip-path="url(#clip0_11_1494)">
<ellipse cx="20" cy="20.5528" rx="20" ry="20.3021" stroke="#E3CDB1"/>
<path fill-rule="evenodd" clip-rule="evenodd" d="M30.0811 15.4601C29.4282 15.7556 28.8781 15.7654 28.2942 15.4731C29.0465 15.0156 29.081 14.694 29.3528 13.8294C28.6487 14.2536 27.8683 14.5621 27.0383 14.7282C26.375 14.0101 25.4279 13.5599 24.3797 13.5599C22.3667 13.5599 20.7354 15.2175 20.7354 17.2593C20.7354 17.5491 20.7675 17.8316 20.8292 18.1027C17.8009 17.9488 15.115 16.4761 13.3177 14.2373C13.0042 14.7835 12.8245 15.4194 12.8245 16.0975C12.8245 17.3814 13.4685 18.513 14.4453 19.1765C13.8479 19.1569 13.2865 18.9909 12.7956 18.7141C12.7948 18.7295 12.7948 18.7442 12.7948 18.7605C12.7948 20.5531 14.0508 22.0479 15.7189 22.3882C15.1848 22.5355 14.6218 22.5583 14.0724 22.4525C14.5368 23.9211 15.8825 24.9909 17.4769 25.021C15.917 26.2617 13.9834 26.7787 12.0811 26.5523C13.6947 27.6017 15.609 28.2139 17.6678 28.2139C24.3708 28.2139 28.036 22.577 28.036 17.6883C28.036 17.5271 28.0336 17.3683 28.0263 17.2096C28.7377 16.6886 29.5926 16.2025 30.0811 15.4601" fill="#E3CDB1"/>
</g>
<defs>
<clipPath id="clip0_11_1494">
<rect width="40" height="40.6042" fill="white" transform="translate(0 0.250732)"/>
</clipPath>
</defs>
</svg>
