<svg width="23" height="17" viewBox="0 0 23 17" fill="none" xmlns="http://www.w3.org/2000/svg">
<mask id="mask0_11_1556" style="mask-type:luminance" maskUnits="userSpaceOnUse" x="0" y="0" width="23" height="16">
<path fill-rule="evenodd" clip-rule="evenodd" d="M22.3273 8.00526V15.955H0.459839V8.00526V0.055542H22.3273V8.00526Z" fill="white"/>
</mask>
<g mask="url(#mask0_11_1556)">
<path fill-rule="evenodd" clip-rule="evenodd" d="M9.60155 10.0129L9.60072 4.78462L14.4644 7.40786L9.60155 10.0129ZM20.2801 3.87889C20.2801 3.87889 20.1042 2.59662 19.5645 2.03195C18.88 1.29081 18.1128 1.28715 17.761 1.24376C15.2421 1.05554 11.4637 1.05554 11.4637 1.05554H11.4559C11.4559 1.05554 7.67762 1.05554 5.15869 1.24376C4.80683 1.28715 4.03988 1.29081 3.35516 2.03195C2.81547 2.59662 2.63985 3.87889 2.63985 3.87889C2.63985 3.87889 2.45984 5.38469 2.45984 6.8905V8.30218C2.45984 9.80796 2.63985 11.3137 2.63985 11.3137C2.63985 11.3137 2.81547 12.596 3.35516 13.1607C4.03988 13.9018 4.93931 13.8784 5.33989 13.9561C6.77993 14.0988 11.4598 14.143 11.4598 14.143C11.4598 14.143 15.2421 14.1371 17.761 13.9489C18.1128 13.9055 18.88 13.9018 19.5645 13.1607C20.1042 12.596 20.2801 11.3137 20.2801 11.3137C20.2801 11.3137 20.4598 9.80796 20.4598 8.30218V6.8905C20.4598 5.38469 20.2801 3.87889 20.2801 3.87889Z" fill="#E3CDB1"/>
</g>
</svg>
