<svg width="40" height="41" viewBox="0 0 40 41" fill="none" xmlns="http://www.w3.org/2000/svg">
<g clip-path="url(#clip0_11_1487)">
<ellipse cx="20" cy="20.5528" rx="20" ry="20.3021" stroke="#E3CDB1"/>
<mask id="mask0_11_1487" style="mask-type:luminance" maskUnits="userSpaceOnUse" x="9" y="12" width="23" height="17">
<path fill-rule="evenodd" clip-rule="evenodd" d="M31.3275 20.5582V28.628H9.45996V20.5582V12.4884H31.3275V20.5582V20.5582Z" fill="white"/>
</mask>
<g mask="url(#mask0_11_1487)">
<path fill-rule="evenodd" clip-rule="evenodd" d="M18.6017 22.5962L18.6008 17.2889L23.4645 19.9518L18.6017 22.5962ZM29.2802 16.3695C29.2802 16.3695 29.1043 15.0679 28.5646 14.4947C27.8802 13.7424 27.1129 13.7386 26.7611 13.6946C24.2423 13.5035 20.4639 13.5035 20.4639 13.5035H20.456C20.456 13.5035 16.6777 13.5035 14.1588 13.6946C13.807 13.7386 13.04 13.7424 12.3553 14.4947C11.8156 15.0679 11.64 16.3695 11.64 16.3695C11.64 16.3695 11.46 17.8981 11.46 19.4266V20.8596C11.46 22.3882 11.64 23.9167 11.64 23.9167C11.64 23.9167 11.8156 25.2184 12.3553 25.7916C13.04 26.5439 13.9394 26.5201 14.34 26.5989C15.7801 26.7439 20.46 26.7887 20.46 26.7887C20.46 26.7887 24.2423 26.7827 26.7611 26.5916C27.1129 26.5476 27.8802 26.5439 28.5646 25.7916C29.1043 25.2184 29.2802 23.9167 29.2802 23.9167C29.2802 23.9167 29.46 22.3882 29.46 20.8596V19.4266C29.46 17.8981 29.2802 16.3695 29.2802 16.3695V16.3695Z" fill="#E3CDB1"/>
</g>
</g>
<defs>
<clipPath id="clip0_11_1487">
<rect width="40" height="40.6042" fill="white" transform="translate(0 0.250732)"/>
</clipPath>
</defs>
</svg>
